<mxfile host="app.diagrams.net" modified="2021-10-04T16:35:12.670Z" agent="5.0 (Windows NT 10.0; Win64; x64) AppleWebKit/537.36 (KHTML, like Gecko) Chrome/94.0.4606.61 Safari/537.36" etag="LRWJf_KqS5OmsUTNylwC" version="15.3.7" type="github">
  <diagram id="JUJrl8eJQjRaIK8pXW79" name="Page-1">
    <mxGraphModel dx="1108" dy="755" grid="1" gridSize="10" guides="1" tooltips="1" connect="1" arrows="1" fold="1" page="1" pageScale="1" pageWidth="827" pageHeight="1169" math="0" shadow="0">
      <root>
        <mxCell id="0" />
        <mxCell id="1" parent="0" />
        <mxCell id="Fgt7dUo-FOWLhd6uusIV-9" value="" style="fillColor=#CC4125;strokeColor=#660000" vertex="1" parent="1">
          <mxGeometry x="200" y="540" width="10" height="310" as="geometry" />
        </mxCell>
        <mxCell id="Fgt7dUo-FOWLhd6uusIV-10" value="postProcessPropertyValues()" style="edgeStyle=none;verticalLabelPosition=top;verticalAlign=bottom;labelPosition=left;align=right;dashed=1;" edge="1" parent="1">
          <mxGeometry x="110" y="439.5" width="100" height="100" as="geometry">
            <mxPoint x="90" y="540" as="sourcePoint" />
            <mxPoint x="200" y="539.5" as="targetPoint" />
          </mxGeometry>
        </mxCell>
        <mxCell id="Fgt7dUo-FOWLhd6uusIV-11" value="ReferenceAnnotationBeanPostProcessor" style="shadow=1;fillColor=#A2C4C9;strokeColor=none" vertex="1" parent="1">
          <mxGeometry x="96.25" y="450" width="217.5" height="50" as="geometry" />
        </mxCell>
        <mxCell id="Fgt7dUo-FOWLhd6uusIV-12" value="" style="fillColor=#CC4125;strokeColor=#660000" vertex="1" parent="1">
          <mxGeometry x="485.87" y="610" width="10" height="360" as="geometry" />
        </mxCell>
        <mxCell id="Fgt7dUo-FOWLhd6uusIV-13" value="AnnotatedInjectionMetadata" style="shadow=1;fillColor=#A2C4C9;strokeColor=none" vertex="1" parent="1">
          <mxGeometry x="414" y="450" width="153.75" height="50" as="geometry" />
        </mxCell>
        <mxCell id="Fgt7dUo-FOWLhd6uusIV-14" value="" style="edgeStyle=none;endArrow=none;dashed=1" edge="1" parent="1" source="Fgt7dUo-FOWLhd6uusIV-13" target="Fgt7dUo-FOWLhd6uusIV-12">
          <mxGeometry x="358.2050694444445" y="555" width="100" height="100" as="geometry">
            <mxPoint x="433.12887345679013" y="500" as="sourcePoint" />
            <mxPoint x="433.4461959876544" y="555" as="targetPoint" />
          </mxGeometry>
        </mxCell>
        <mxCell id="Fgt7dUo-FOWLhd6uusIV-15" value="return" style="edgeStyle=none;curved=1;rounded=0;orthogonalLoop=1;jettySize=auto;html=1;exitX=-0.158;exitY=0.675;exitDx=0;exitDy=0;entryX=1;entryY=0.99;entryDx=0;entryDy=0;entryPerimeter=0;endArrow=block;startSize=14;endSize=14;sourcePerimeterSpacing=8;targetPerimeterSpacing=8;endFill=1;dashed=1;exitPerimeter=0;" edge="1" parent="1" source="Fgt7dUo-FOWLhd6uusIV-16" target="Fgt7dUo-FOWLhd6uusIV-32">
          <mxGeometry relative="1" as="geometry" />
        </mxCell>
        <mxCell id="Fgt7dUo-FOWLhd6uusIV-61" style="edgeStyle=none;rounded=0;sketch=1;orthogonalLoop=1;jettySize=auto;html=1;entryX=0.5;entryY=0;entryDx=0;entryDy=0;dashed=1;strokeColor=none;" edge="1" parent="1" source="Fgt7dUo-FOWLhd6uusIV-16" target="Fgt7dUo-FOWLhd6uusIV-60">
          <mxGeometry relative="1" as="geometry" />
        </mxCell>
        <mxCell id="Fgt7dUo-FOWLhd6uusIV-16" value="" style="fillColor=#CC4125;strokeColor=#660000" vertex="1" parent="1">
          <mxGeometry x="707.5" y="619.39" width="10" height="110" as="geometry" />
        </mxCell>
        <mxCell id="Fgt7dUo-FOWLhd6uusIV-17" value="ReferenceBean" style="shadow=1;fillColor=#A2C4C9;strokeColor=none" vertex="1" parent="1">
          <mxGeometry x="660" y="450" width="105" height="50" as="geometry" />
        </mxCell>
        <mxCell id="Fgt7dUo-FOWLhd6uusIV-18" value="" style="edgeStyle=none;endArrow=none;dashed=1" edge="1" parent="1" source="Fgt7dUo-FOWLhd6uusIV-17" target="Fgt7dUo-FOWLhd6uusIV-16">
          <mxGeometry x="676.9878472222224" y="565" width="100" height="100" as="geometry">
            <mxPoint x="737.1527777777778" y="500" as="sourcePoint" />
            <mxPoint x="737.1527777777778" y="650" as="targetPoint" />
          </mxGeometry>
        </mxCell>
        <mxCell id="Fgt7dUo-FOWLhd6uusIV-19" value="DubboReferenceLazyInitTargetSource" style="shadow=1;fillColor=#A2C4C9;strokeColor=none" vertex="1" parent="1">
          <mxGeometry x="830" y="450" width="205" height="50" as="geometry" />
        </mxCell>
        <mxCell id="Fgt7dUo-FOWLhd6uusIV-20" value="" style="edgeStyle=none;endArrow=none;dashed=1" edge="1" parent="1" source="Fgt7dUo-FOWLhd6uusIV-19" target="Fgt7dUo-FOWLhd6uusIV-21">
          <mxGeometry x="877.3350694444446" y="555" width="100" height="100" as="geometry">
            <mxPoint x="952.2588734567901" y="500" as="sourcePoint" />
            <mxPoint x="952.5761959876544" y="555" as="targetPoint" />
          </mxGeometry>
        </mxCell>
        <mxCell id="Fgt7dUo-FOWLhd6uusIV-21" value="" style="fillColor=#CC4125;strokeColor=#660000" vertex="1" parent="1">
          <mxGeometry x="927.4999999999999" y="639.0042901234568" width="10" height="40" as="geometry" />
        </mxCell>
        <mxCell id="Fgt7dUo-FOWLhd6uusIV-22" value="" style="edgeStyle=elbowEdgeStyle;elbow=horizontal;endArrow=none;dashed=1" edge="1" parent="1" source="Fgt7dUo-FOWLhd6uusIV-11" target="Fgt7dUo-FOWLhd6uusIV-9">
          <mxGeometry x="230.00000000000003" y="700" width="100" height="100" as="geometry">
            <mxPoint x="230.00000000000003" y="800" as="sourcePoint" />
            <mxPoint x="330" y="700" as="targetPoint" />
          </mxGeometry>
        </mxCell>
        <mxCell id="Fgt7dUo-FOWLhd6uusIV-23" value="" style="edgeStyle=none;dashed=1;endArrow=none;entryX=0.5;entryY=0;entryDx=0;entryDy=0;" edge="1" parent="1" source="Fgt7dUo-FOWLhd6uusIV-9" target="Fgt7dUo-FOWLhd6uusIV-28">
          <mxGeometry x="50" y="690" width="100" height="100" as="geometry">
            <mxPoint x="50" y="790" as="sourcePoint" />
            <mxPoint x="205" y="750" as="targetPoint" />
          </mxGeometry>
        </mxCell>
        <mxCell id="Fgt7dUo-FOWLhd6uusIV-82" style="edgeStyle=none;rounded=0;sketch=0;orthogonalLoop=1;jettySize=auto;html=1;dashed=1;startArrow=none;startFill=0;endArrow=block;endFill=1;shadow=0;" edge="1" parent="1" source="Fgt7dUo-FOWLhd6uusIV-24">
          <mxGeometry relative="1" as="geometry">
            <mxPoint x="85" y="1291.5685317095588" as="targetPoint" />
          </mxGeometry>
        </mxCell>
        <mxCell id="Fgt7dUo-FOWLhd6uusIV-24" value="服务引入流程" style="rounded=1;fontStyle=1;fillColor=#FFD966;strokeColor=none" vertex="1" parent="1">
          <mxGeometry x="10" y="410" width="150" height="30" as="geometry" />
        </mxCell>
        <mxCell id="Fgt7dUo-FOWLhd6uusIV-25" value="inject()" style="edgeStyle=none;curved=1;rounded=0;orthogonalLoop=1;jettySize=auto;html=1;endArrow=open;startSize=14;endSize=14;sourcePerimeterSpacing=8;targetPerimeterSpacing=8;entryX=0;entryY=0;entryDx=0;entryDy=0;dashed=1;" edge="1" parent="1" target="Fgt7dUo-FOWLhd6uusIV-12">
          <mxGeometry relative="1" as="geometry">
            <mxPoint x="220" y="610" as="sourcePoint" />
            <mxPoint x="450" y="610" as="targetPoint" />
          </mxGeometry>
        </mxCell>
        <mxCell id="Fgt7dUo-FOWLhd6uusIV-26" value="" style="html=1;points=[];perimeter=orthogonalPerimeter;hachureGap=4;pointerEvents=0;" vertex="1" parent="1">
          <mxGeometry x="210" y="590" width="10" height="40" as="geometry" />
        </mxCell>
        <mxCell id="Fgt7dUo-FOWLhd6uusIV-27" value="..." style="edgeStyle=orthogonalEdgeStyle;html=1;align=left;spacingLeft=2;endArrow=block;rounded=0;entryX=1;entryY=0;startSize=14;endSize=14;sourcePerimeterSpacing=8;targetPerimeterSpacing=8;" edge="1" parent="1" target="Fgt7dUo-FOWLhd6uusIV-26">
          <mxGeometry relative="1" as="geometry">
            <mxPoint x="210" y="570" as="sourcePoint" />
            <Array as="points">
              <mxPoint x="240" y="570" />
            </Array>
          </mxGeometry>
        </mxCell>
        <mxCell id="Fgt7dUo-FOWLhd6uusIV-28" value="" style="fillColor=#CC4125;strokeColor=#660000" vertex="1" parent="1">
          <mxGeometry x="200" y="999.9966666666667" width="10" height="95.83333333333331" as="geometry" />
        </mxCell>
        <mxCell id="Fgt7dUo-FOWLhd6uusIV-31" value="getObject()" style="edgeStyle=none;curved=1;rounded=0;orthogonalLoop=1;jettySize=auto;html=1;entryX=0;entryY=0.5;entryDx=0;entryDy=0;endArrow=block;startSize=14;endSize=14;sourcePerimeterSpacing=8;targetPerimeterSpacing=8;endFill=1;dashed=1;" edge="1" parent="1" target="Fgt7dUo-FOWLhd6uusIV-16">
          <mxGeometry relative="1" as="geometry">
            <mxPoint x="510" y="674" as="sourcePoint" />
          </mxGeometry>
        </mxCell>
        <mxCell id="Fgt7dUo-FOWLhd6uusIV-32" value="" style="html=1;points=[];perimeter=orthogonalPerimeter;hachureGap=4;pointerEvents=0;" vertex="1" parent="1">
          <mxGeometry x="495.87" y="654.39" width="10" height="40" as="geometry" />
        </mxCell>
        <mxCell id="Fgt7dUo-FOWLhd6uusIV-33" value="spring的FactoryBean相关特性..." style="edgeStyle=orthogonalEdgeStyle;html=1;align=left;spacingLeft=2;endArrow=block;rounded=0;entryX=1;entryY=0;startSize=14;endSize=14;sourcePerimeterSpacing=8;targetPerimeterSpacing=8;" edge="1" parent="1" target="Fgt7dUo-FOWLhd6uusIV-32">
          <mxGeometry relative="1" as="geometry">
            <mxPoint x="496.37" y="633.9999999999998" as="sourcePoint" />
            <Array as="points">
              <mxPoint x="526.37" y="634" />
            </Array>
          </mxGeometry>
        </mxCell>
        <mxCell id="Fgt7dUo-FOWLhd6uusIV-34" value="" style="html=1;points=[];perimeter=orthogonalPerimeter;hachureGap=4;pointerEvents=0;" vertex="1" parent="1">
          <mxGeometry x="495.87" y="739" width="10" height="40" as="geometry" />
        </mxCell>
        <mxCell id="Fgt7dUo-FOWLhd6uusIV-35" value="initialize()" style="edgeStyle=orthogonalEdgeStyle;html=1;align=left;spacingLeft=2;endArrow=block;rounded=0;entryX=1;entryY=0;startSize=14;endSize=14;sourcePerimeterSpacing=8;targetPerimeterSpacing=8;dashed=1;" edge="1" parent="1" target="Fgt7dUo-FOWLhd6uusIV-34">
          <mxGeometry relative="1" as="geometry">
            <mxPoint x="495.87" y="718.9999999999998" as="sourcePoint" />
            <Array as="points">
              <mxPoint x="525.87" y="719" />
            </Array>
          </mxGeometry>
        </mxCell>
        <mxCell id="Fgt7dUo-FOWLhd6uusIV-38" value="" style="html=1;points=[];perimeter=orthogonalPerimeter;hachureGap=4;pointerEvents=0;" vertex="1" parent="1">
          <mxGeometry x="495.87" y="840" width="10" height="110" as="geometry" />
        </mxCell>
        <mxCell id="Fgt7dUo-FOWLhd6uusIV-39" value="doStart()" style="edgeStyle=orthogonalEdgeStyle;html=1;align=left;spacingLeft=2;endArrow=block;rounded=0;entryX=1;entryY=0;startSize=14;endSize=14;sourcePerimeterSpacing=8;targetPerimeterSpacing=8;dashed=1;" edge="1" parent="1" target="Fgt7dUo-FOWLhd6uusIV-38">
          <mxGeometry relative="1" as="geometry">
            <mxPoint x="495.87" y="820" as="sourcePoint" />
            <Array as="points">
              <mxPoint x="525.87" y="820" />
            </Array>
          </mxGeometry>
        </mxCell>
        <mxCell id="Fgt7dUo-FOWLhd6uusIV-40" value="1、依托Spring的SmartInstantiationAwareBeanPostProcessor的postProcessPropertyValues在Bean初始化完成之后，去注入Bean的属性&lt;br&gt;2、...这里省略...（暂时不细去追究细节，先了解流程）&lt;br&gt;3、委托AnnotatedInjectionMetadata去注入属性&lt;br&gt;4、通过Spring的FactoryBean接口的特性，会调用到ReferenceBean#getObject方法中&lt;br&gt;5、调用createLazyProxy方法去创建代理对象，createLazyProxy封装了ProxyFactory进行创建代理对象，并且依托DubboReferenceLazyInitTargetSource实现池化的特性（池化——当代理工厂去创建代理对象时，会从池里去获取代理实例）&lt;br&gt;6、DubboReferenceLazyInitTargetSource池依托了ReferenceBean去创建代理对象&lt;br&gt;7、ReferenceBean依托ReferenceConfig去创建对象&lt;br&gt;### ReferenceConfig会先判断是否销毁然后对配置进行初始化并且创建代理对象，这里的逻辑较为复杂，所以分为一个小模块进行分析.&lt;br&gt;1、" style="rounded=0;whiteSpace=wrap;html=1;sketch=1;fillColor=#d5e8d4;strokeColor=#82b366;align=left;" vertex="1" parent="1">
          <mxGeometry x="70" y="210" width="1080" height="180" as="geometry" />
        </mxCell>
        <mxCell id="Fgt7dUo-FOWLhd6uusIV-56" value="getProxy()" style="edgeStyle=none;rounded=0;sketch=0;orthogonalLoop=1;jettySize=auto;html=1;dashed=1;endArrow=block;endFill=1;entryX=-0.007;entryY=0.176;entryDx=0;entryDy=0;entryPerimeter=0;shadow=0;" edge="1" parent="1" target="Fgt7dUo-FOWLhd6uusIV-50">
          <mxGeometry relative="1" as="geometry">
            <mxPoint x="730" y="700" as="sourcePoint" />
            <mxPoint x="1170" y="700" as="targetPoint" />
          </mxGeometry>
        </mxCell>
        <mxCell id="Fgt7dUo-FOWLhd6uusIV-65" style="edgeStyle=none;rounded=0;sketch=0;orthogonalLoop=1;jettySize=auto;html=1;entryX=0;entryY=0.5;entryDx=0;entryDy=0;dashed=1;startArrow=baseDash;startFill=0;endArrow=block;endFill=1;" edge="1" parent="1" source="Fgt7dUo-FOWLhd6uusIV-46" target="Fgt7dUo-FOWLhd6uusIV-21">
          <mxGeometry relative="1" as="geometry" />
        </mxCell>
        <mxCell id="Fgt7dUo-FOWLhd6uusIV-66" value="：：ref" style="edgeLabel;html=1;align=center;verticalAlign=middle;resizable=0;points=[];" vertex="1" connectable="0" parent="Fgt7dUo-FOWLhd6uusIV-65">
          <mxGeometry x="0.2861" y="2" relative="1" as="geometry">
            <mxPoint as="offset" />
          </mxGeometry>
        </mxCell>
        <mxCell id="Fgt7dUo-FOWLhd6uusIV-46" value="" style="html=1;points=[];perimeter=orthogonalPerimeter;rounded=0;sketch=0;" vertex="1" parent="1">
          <mxGeometry x="717.5" y="639" width="10" height="81" as="geometry" />
        </mxCell>
        <mxCell id="Fgt7dUo-FOWLhd6uusIV-47" value="createLazyProxy()" style="edgeStyle=orthogonalEdgeStyle;html=1;align=left;spacingLeft=2;endArrow=block;rounded=0;entryX=1;entryY=0;" edge="1" target="Fgt7dUo-FOWLhd6uusIV-46" parent="1">
          <mxGeometry relative="1" as="geometry">
            <mxPoint x="718" y="619" as="sourcePoint" />
            <Array as="points">
              <mxPoint x="748" y="619" />
            </Array>
          </mxGeometry>
        </mxCell>
        <mxCell id="Fgt7dUo-FOWLhd6uusIV-48" value="ProxyFactory" style="shadow=1;fillColor=#A2C4C9;strokeColor=none" vertex="1" parent="1">
          <mxGeometry x="1120" y="450" width="125" height="50" as="geometry" />
        </mxCell>
        <mxCell id="Fgt7dUo-FOWLhd6uusIV-49" value="" style="edgeStyle=none;endArrow=none;dashed=1" edge="1" parent="1" source="Fgt7dUo-FOWLhd6uusIV-48" target="Fgt7dUo-FOWLhd6uusIV-50">
          <mxGeometry x="1127.3350694444446" y="555" width="100" height="100" as="geometry">
            <mxPoint x="1202.25887345679" y="500" as="sourcePoint" />
            <mxPoint x="1202.5761959876545" y="555" as="targetPoint" />
          </mxGeometry>
        </mxCell>
        <mxCell id="Fgt7dUo-FOWLhd6uusIV-64" style="edgeStyle=none;rounded=0;sketch=0;orthogonalLoop=1;jettySize=auto;html=1;entryX=1;entryY=0.5;entryDx=0;entryDy=0;dashed=1;startArrow=baseDash;startFill=0;endArrow=block;endFill=1;" edge="1" parent="1" target="Fgt7dUo-FOWLhd6uusIV-67">
          <mxGeometry relative="1" as="geometry">
            <mxPoint x="1183" y="860" as="sourcePoint" />
          </mxGeometry>
        </mxCell>
        <mxCell id="Fgt7dUo-FOWLhd6uusIV-70" value="createObject()" style="edgeLabel;html=1;align=center;verticalAlign=middle;resizable=0;points=[];" vertex="1" connectable="0" parent="Fgt7dUo-FOWLhd6uusIV-64">
          <mxGeometry x="-0.1972" relative="1" as="geometry">
            <mxPoint as="offset" />
          </mxGeometry>
        </mxCell>
        <mxCell id="Fgt7dUo-FOWLhd6uusIV-50" value="" style="fillColor=#CC4125;strokeColor=#660000" vertex="1" parent="1">
          <mxGeometry x="1177.5" y="650" width="10" height="280" as="geometry" />
        </mxCell>
        <mxCell id="Fgt7dUo-FOWLhd6uusIV-78" style="edgeStyle=none;rounded=1;sketch=0;orthogonalLoop=1;jettySize=auto;html=1;entryX=-0.05;entryY=0.032;entryDx=0;entryDy=0;dashed=1;startArrow=none;startFill=0;endArrow=block;endFill=1;exitX=1.017;exitY=0.675;exitDx=0;exitDy=0;exitPerimeter=0;entryPerimeter=0;" edge="1" parent="1" source="Fgt7dUo-FOWLhd6uusIV-60" target="Fgt7dUo-FOWLhd6uusIV-74">
          <mxGeometry relative="1" as="geometry" />
        </mxCell>
        <mxCell id="Fgt7dUo-FOWLhd6uusIV-79" value="get()" style="edgeLabel;html=1;align=center;verticalAlign=middle;resizable=0;points=[];" vertex="1" connectable="0" parent="Fgt7dUo-FOWLhd6uusIV-78">
          <mxGeometry x="-0.1135" y="3" relative="1" as="geometry">
            <mxPoint as="offset" />
          </mxGeometry>
        </mxCell>
        <mxCell id="Fgt7dUo-FOWLhd6uusIV-60" value="" style="fillColor=#CC4125;strokeColor=#660000" vertex="1" parent="1">
          <mxGeometry x="707.5" y="830.0066666666667" width="10" height="95.83333333333331" as="geometry" />
        </mxCell>
        <mxCell id="Fgt7dUo-FOWLhd6uusIV-63" value="" style="edgeStyle=none;dashed=1;endArrow=none;" edge="1" parent="1">
          <mxGeometry x="557.0799999999999" y="569.39" width="100" height="100" as="geometry">
            <mxPoint x="712.0799999999999" y="729.39" as="sourcePoint" />
            <mxPoint x="712" y="830" as="targetPoint" />
          </mxGeometry>
        </mxCell>
        <mxCell id="Fgt7dUo-FOWLhd6uusIV-72" value="getCallProxy()" style="edgeStyle=none;rounded=0;sketch=0;orthogonalLoop=1;jettySize=auto;html=1;dashed=1;startArrow=baseDash;startFill=0;endArrow=block;endFill=1;entryX=0.986;entryY=0.313;entryDx=0;entryDy=0;entryPerimeter=0;" edge="1" parent="1" source="Fgt7dUo-FOWLhd6uusIV-67" target="Fgt7dUo-FOWLhd6uusIV-60">
          <mxGeometry relative="1" as="geometry">
            <mxPoint x="720" y="860" as="targetPoint" />
          </mxGeometry>
        </mxCell>
        <mxCell id="Fgt7dUo-FOWLhd6uusIV-67" value="" style="fillColor=#CC4125;strokeColor=#660000" vertex="1" parent="1">
          <mxGeometry x="927.4999999999999" y="840.0042901234568" width="10" height="40" as="geometry" />
        </mxCell>
        <mxCell id="Fgt7dUo-FOWLhd6uusIV-69" value="" style="edgeStyle=none;dashed=1;endArrow=none;entryX=0.5;entryY=0;entryDx=0;entryDy=0;" edge="1" parent="1" target="Fgt7dUo-FOWLhd6uusIV-67">
          <mxGeometry x="777.16" y="508.39" width="100" height="100" as="geometry">
            <mxPoint x="932" y="680" as="sourcePoint" />
            <mxPoint x="932" y="810" as="targetPoint" />
          </mxGeometry>
        </mxCell>
        <mxCell id="Fgt7dUo-FOWLhd6uusIV-75" style="edgeStyle=none;rounded=0;sketch=1;orthogonalLoop=1;jettySize=auto;html=1;entryX=0.5;entryY=0;entryDx=0;entryDy=0;dashed=1;startArrow=none;startFill=0;endArrow=none;endFill=0;" edge="1" parent="1" source="Fgt7dUo-FOWLhd6uusIV-73" target="Fgt7dUo-FOWLhd6uusIV-74">
          <mxGeometry relative="1" as="geometry" />
        </mxCell>
        <mxCell id="Fgt7dUo-FOWLhd6uusIV-73" value="ReferenceConfig" style="shadow=1;fillColor=#A2C4C9;strokeColor=none" vertex="1" parent="1">
          <mxGeometry x="1340" y="450" width="125" height="50" as="geometry" />
        </mxCell>
        <mxCell id="Fgt7dUo-FOWLhd6uusIV-74" value="" style="fillColor=#CC4125;strokeColor=#660000" vertex="1" parent="1">
          <mxGeometry x="1397.5" y="885.84" width="10" height="314.16" as="geometry" />
        </mxCell>
        <mxCell id="Fgt7dUo-FOWLhd6uusIV-80" value="" style="html=1;points=[];perimeter=orthogonalPerimeter;rounded=0;sketch=0;" vertex="1" parent="1">
          <mxGeometry x="1407.5" y="920" width="10" height="40" as="geometry" />
        </mxCell>
        <mxCell id="Fgt7dUo-FOWLhd6uusIV-81" value="init()" style="edgeStyle=orthogonalEdgeStyle;html=1;align=left;spacingLeft=2;endArrow=block;rounded=0;entryX=1;entryY=0;dashed=1;" edge="1" target="Fgt7dUo-FOWLhd6uusIV-80" parent="1">
          <mxGeometry relative="1" as="geometry">
            <mxPoint x="1408" y="900" as="sourcePoint" />
            <Array as="points">
              <mxPoint x="1438" y="900" />
            </Array>
          </mxGeometry>
        </mxCell>
      </root>
    </mxGraphModel>
  </diagram>
</mxfile>
